<?xml version="1.0" encoding="UTF-8" standalone="no"?>
<svg
   xmlns:dc="http://purl.org/dc/elements/1.1/"
   xmlns:cc="http://creativecommons.org/ns#"
   xmlns:rdf="http://www.w3.org/1999/02/22-rdf-syntax-ns#"
   xmlns:svg="http://www.w3.org/2000/svg"
   xmlns="http://www.w3.org/2000/svg"
   version="1.1"
   id="svg3097"
   height="1052.3622047"
   width="744.09448819">
  <defs
     id="defs3099" />
  <metadata
     id="metadata3102">
    <rdf:RDF>
      <cc:Work
         rdf:about="">
        <dc:format>image/svg+xml</dc:format>
        <dc:type
           rdf:resource="http://purl.org/dc/dcmitype/StillImage" />
        <dc:title></dc:title>
      </cc:Work>
    </rdf:RDF>
  </metadata>
  <g
     id="layer1">
    <g
       id="g3956"
       transform="translate(1432.7523,415.74789)">
      <path
         style="fill:#000000;fill-opacity:1;fill-rule:nonzero;stroke:#ffffff;stroke-width:3;stroke-miterlimit:4;stroke-dasharray:none"
         d="m -1163.4759,335.8242 c 1.2763,0.7664 2.5642,1.4865 3.8658,2.1577 l 0.3456,0.2076 0.015,-0.024 c 27.4549,13.9577 59.8602,6.9422 74.1109,-16.7856 14.9893,-24.958 4.2197,-58.9581 -24.0536,-75.93872 -1.8224,-1.09447 -3.6707,-2.08901 -5.5423,-2.98973 l -49.5558,-29.76251 c -1.6746,-1.22891 -3.4289,-2.39841 -5.2512,-3.49272 -28.2733,-16.98068 -63.3471,-10.51367 -78.3366,14.44429 -14.9894,24.95799 -4.2197,58.95809 24.0536,75.93869 1.2764,0.7665 2.5644,1.4864 3.8659,2.1578 l 52.7623,31.6884 c 1.2042,0.834 2.4445,1.6321 3.7211,2.3989 z m 4.2616,-31.823 c -0.8149,-0.4894 -1.6069,-0.993 -2.3852,-1.5094 l -33.6825,-20.2295 c -0.8216,-0.4443 -1.6384,-0.9069 -2.4533,-1.3963 -18.0493,-10.8402 -27.3287,-28.5509 -20.7203,-39.55437 6.6086,-11.00337 26.6026,-11.13281 44.6519,-0.29261 1.1634,0.69874 2.2919,1.43124 3.3804,2.18321 l 31.6333,18.99867 c 1.1751,0.6077 2.3439,1.2547 3.5073,1.9533 18.0495,10.8404 27.3288,28.5511 20.7203,39.5545 -6.2828,10.4611 -24.663,11.0943 -41.9691,1.8163 l -0.01,0.011 -0.217,-0.1304 c -0.8214,-0.4443 -1.6464,-0.9118 -2.4611,-1.4011 z"
         id="path3797-5-1-7-1" />
      <path
         style="fill:#000000;fill-opacity:1;fill-rule:nonzero;stroke:#ffffff;stroke-width:3;stroke-miterlimit:4;stroke-dasharray:none"
         d="m -883.50418,295.1029 c 1.2137,-0.8621 2.3894,-1.754 3.526,-2.6773 l 0.3287,-0.2334 -0.015,-0.024 c 23.7894,-19.5616 30.3467,-52.0626 14.3173,-74.62698 -16.8604,-23.73418 -52.3271,-27.49074 -79.214,-8.39063 -1.7329,1.231 -3.3846,2.52621 -4.9601,3.88006 l -47.1257,33.47735 c -1.7969,1.0418 -3.57132,2.1805 -5.30422,3.4116 -26.8871,19.1001 -35.0161,53.8263 -18.1557,77.5604 16.8605,23.7342 52.32722,27.4909 79.21402,8.3908 1.2137,-0.8622 2.3894,-1.754 3.526,-2.6774 l 50.1751,-35.6436 c 1.2465,-0.7694 2.4751,-1.5856 3.689,-2.4481 z m -27.4487,-16.656 c -0.775,0.5505 -1.5538,1.0743 -2.3386,1.5808 l -32.0311,22.7544 c -0.7365,0.5742 -1.4877,1.1373 -2.2626,1.6877 -17.1642,12.1933 -37.1093,13.5983 -44.5427,3.1346 -7.4332,-10.4638 0.4598,-28.8344 17.6241,-41.0277 1.1063,-0.7859 2.2295,-1.5263 3.3548,-2.2222 l 30.0821,-21.36999 c 1.0277,-0.83345 2.0889,-1.64479 3.1953,-2.43073 17.1642,-12.1933 37.1092,-13.59846 44.5426,-3.13456 7.0671,9.94808 0.2824,27.04188 -15.153,39.18028 l 0.011,0.01 -0.2062,0.1466 c -0.7362,0.5743 -1.4953,1.1429 -2.2702,1.6932 z"
         id="path3797-7-62-8-7-7" />
      <path
         style="fill:#000000;fill-opacity:1;fill-rule:nonzero;stroke:#ffffff;stroke-width:3;stroke-miterlimit:4;stroke-dasharray:none"
         d="m -1298.3231,81.596289 c -0.3299,1.45162 -0.6162,2.89918 -0.8439,4.34607 l -0.094,0.39212 0.028,0.006 c -4.699,30.438571 12.0731,59.039441 39.062,65.179001 28.388,6.45788 57.3333,-14.37874 64.649,-46.53772 0.4714,-2.07283 0.8399,-4.13905 1.1121,-6.198451 l 12.8224,-56.36607 c 0.6455,-1.97433 1.2094,-4.0058 1.6809,-6.07861 7.3158,-32.1591096 -9.7676,-63.46656 -38.1555,-69.92436 -28.3881,-6.45789 -57.3335,14.37876 -64.6491,46.53777 -0.3301,1.4517 -0.6162,2.89926 -0.8441,4.34606 l -13.6522,60.01363 c -0.4165,1.40421 -0.7883,2.83167 -1.1187,4.2836 z m 31.5648,-5.87595 c 0.2114,-0.92695 0.4426,-1.83631 0.6901,-2.73707 l 8.7153,-38.31182 c 0.1666,-0.91887 0.3511,-1.83941 0.5623,-2.76606 4.6703,-20.52997 18.6036,-34.8701996 31.1192,-32.02308963 12.5156,2.84710003 18.8743,21.80349963 14.2042,42.33348963 -0.3007,1.32327 -0.6446,2.62389 -1.0203,3.89258 l -8.1848,35.9808 c -0.2103,1.30638 -0.4616,2.61826 -0.7622,3.94165 -4.6705,20.529931 -18.6036,34.870241 -31.1191,32.023041 -11.8989,-2.7068 -18.233,-19.972601 -14.8153,-39.309331 l -0.013,-0.006 0.052,-0.24746 c 0.1667,-0.91883 0.3531,-1.84863 0.5644,-2.77531 z"
         id="path3797-57-1-9-4" />
      <path
         style="fill:#000000;fill-opacity:1;stroke:#ffffff;stroke-width:3;stroke-miterlimit:4;stroke-dasharray:none"
         d="m -1249.0434,80.227919 c -1.4545,-0.008 -2.954,0.19177 -4.4186,0.63835 -7.7382,2.35906 -12.0995,10.48351 -9.8653,18.22933 l 0,0.032 c 0.02,0.0634 0.04,0.12536 0.059,0.18875 0.017,0.0544 0.042,0.10288 0.059,0.15729 l 46.6832,153.189261 c 0.023,0.077 0.066,0.1438 0.089,0.2204 2.4723,7.6666 10.6258,11.9442 18.3594,9.5863 7.7285,-2.3561 12.1107,-10.4604 9.896,-18.19753 l 0.094,-0.0294 -46.891,-153.786821 -0.1256,0.0287 c -2.0026,-6.21744 -7.7128,-10.22114 -13.9402,-10.25591 z"
         id="rect3820-7-1-3-0" />
      <path
         style="fill:#000000;fill-opacity:1;fill-rule:nonzero;stroke:#ffffff;stroke-width:3;stroke-miterlimit:4;stroke-dasharray:none"
         d="m -1086.452,-126.26019 c -1.4887,-0.001 -2.9637,0.0431 -4.4253,0.13603 l -0.403,-3.5e-4 0,0.0291 c -30.7249,2.13844 -54.9161,24.81217 -54.9444,52.490589 -0.033,29.11326 26.6839,52.74289 59.6646,52.77678 2.1258,0.002 4.2226,-0.095 6.2909,-0.28423 l 57.8063,0.0596 c 2.0682,0.19343 4.174,0.29494 6.2998,0.29717 32.98052,0.0339 59.74292,-23.54117 59.77272,-52.65447 0.033,-29.113259 -26.684,-52.742919 -59.66472,-52.776759 -1.4888,-0.002 -2.9637,0.0431 -4.4252,0.13606 l -61.5469,-0.0628 c -1.4615,-0.096 -2.9357,-0.14363 -4.4247,-0.14523 z m 12.7011,29.488069 c 0.9504,9e-4 1.8887,0.0259 2.8217,0.0684 l 39.2907,0.0399 c 0.9329,-0.0408 1.8715,-0.0637 2.8219,-0.0626 21.0544,0.0215 38.11732,10.44415 38.10422,23.27957 -0.014,12.83544 -17.09752,23.2231 -38.15182,23.20164 -1.3571,-0.001 -2.7016,-0.0497 -4.0218,-0.13547 l -36.9,-0.0373 c -1.3205,0.0829 -2.6557,0.12846 -4.0126,0.12713 -21.0545,-0.0216 -38.1175,-10.44439 -38.1042,-23.27969 0.014,-12.20284 15.4533,-22.19313 35.0673,-23.12967 l -0.01,-0.0142 0.2529,1.2e-4 c 0.9329,-0.0408 1.881,-0.0638 2.8313,-0.0628 z"
         id="path3797-7-6-6-1-9" />
      <path
         style="fill:#000000;fill-opacity:1;stroke:#ffffff;stroke-width:3;stroke-miterlimit:4;stroke-dasharray:none"
         d="m -1094.8406,-86.046351 c -2.7766,0.0504 -5.5811,0.88528 -8.042,2.55894 l -0.062,0.0615 c -0.038,0.0265 -0.088,0.0336 -0.126,0.0604 -0.036,0.0258 -0.059,0.0661 -0.095,0.0921 l -131.0863,92.0671804 -0.1895,0.12193 -0.01,0.0309 c -6.5111,4.7363296 -8.036,13.8343696 -3.3908,20.4483496 4.6453,6.614 13.716,8.21958 20.3809,3.7021 l 0.06,0.0952 131.5604,-92.40344 -0.062,-0.0634 c 6.5436,-4.72835 8.0769,-13.85197 3.4226,-20.47903 -2.9334,-4.17653 -7.6244,-6.37898 -12.3696,-6.2928 z"
         id="rect3820-8-3-5-9-4" />
      <path
         style="fill:#000000;fill-opacity:1;fill-rule:nonzero;stroke:#ffffff;stroke-width:3;stroke-miterlimit:4;stroke-dasharray:none"
         d="m -835.24058,9.6610294 c -0.4435,-1.4211 -0.9268,-2.81526 -1.4528,-4.18217 l -0.1202,-0.38475 -0.027,0.008 c -11.2253,-28.6808204 -40.0936,-44.9882004 -66.515,-36.7415304 -27.7909,8.67422 -42.3548,41.2301904 -32.5282,72.71298 0.6332,2.02918 1.3528,4.00089 2.1515,5.91838 l 17.2232,55.180841 c 0.4337,2.03132 0.9664,4.07123 1.5997,6.10039 9.8265,31.48273 40.3233,49.97422 68.1145,41.29992 27.7908,-8.67416 42.3548,-41.23014 32.5283,-72.712811 -0.4436,-1.42119 -0.927,-2.81538 -1.4526,-4.18214 l -18.3377,-58.75159 c -0.3452,-1.42348 -0.7405,-2.84445 -1.1841,-4.2658996 z m -24.3432,20.9349196 c 0.2834,0.90755 0.54,1.81019 0.7783,2.71335 l 11.7063,37.50605 c 0.3179,0.87827 0.6205,1.767 0.9035,2.67419 6.2732,20.09828 1.4276,39.496611 -10.8249,43.320911 -12.2524,3.82424 -27.2721,-9.37372 -33.5451,-29.471981 -0.4045,-1.29533 -0.7601,-2.59278 -1.0732,-3.87834 l -10.9941,-35.22402 c -0.474,-1.23534 -0.9166,-2.4957 -1.3208,-3.79115 -6.2732,-20.09831 -1.4276,-39.4966896 10.8248,-43.3209296 11.6486,-3.63577 25.7978,8.11278 32.5547,26.5500496 l 0.012,3.7e-4 0.076,0.24163 c 0.3177,0.87807 0.623,1.77588 0.9061,2.68303 z"
         id="path3797-7-5-8-8" />
      <path
         style="fill:#000000;fill-opacity:1;stroke:#ffffff;stroke-width:3;stroke-miterlimit:4;stroke-dasharray:none"
         d="m -1015.219,-88.370861 c -4.2564,0.17781 -8.4083,2.21094 -11.1814,5.87261 -4.8805,6.44401 -3.6534,15.55977 2.686,20.5262 l -0.063,0.0925 128.15772,97.06737 0.064,-0.0609 c 6.4994,4.77031 15.6479,3.45058 20.5326,-2.99859 4.8844,-6.44927 3.6679,-15.62506 -2.6851,-20.58876 l -0.185,-0.12867 -127.78842,-96.77868 -0.1844,-0.15995 -0.032,0.0306 c -2.8051,-2.05214 -6.0866,-3.00843 -9.3197,-2.87339 z"
         id="rect3820-8-31-6-8" />
      <path
         style="fill:#000000;fill-opacity:1;stroke:#ffffff;stroke-width:3;stroke-miterlimit:4;stroke-dasharray:none"
         d="m -1131.839,278.866 0.01,0.094 c -8.0634,0.2077 -14.5172,6.8528 -14.4256,14.9454 0.092,8.0927 6.6939,14.59 14.76,14.6152 0.072,5e-4 0.1459,0 0.2187,0 l 160.30232,-1.8136 c 0.074,-4e-4 0.1449,0 0.2187,0 8.0616,-0.2099 14.4859,-6.8538 14.3944,-14.945 -0.091,-8.0913 -6.6649,-14.6195 -14.7292,-14.6468 l -0.01,-0.062 -160.73962,1.8186 z"
         id="rect3820-1-7-5-2" />
      <path
         style="fill:#000000;fill-opacity:1;stroke:#ffffff;stroke-width:3;stroke-miterlimit:4;stroke-dasharray:none"
         d="m -864.91308,80.544919 c -6.2264,-0.0512 -12.0227,3.87489 -14.112,10.06233 l -0.094,-0.0309 -48.9817,153.123731 0.061,0.0309 c -2.3401,7.71392 1.9391,15.89812 9.6436,18.36392 7.7004,2.4646 15.912,-1.7311 18.49,-9.3629 l 0.031,1e-4 c 0.032,-0.071 0.031,-0.1476 0.063,-0.2187 l 48.9512,-152.904851 -0.031,-9e-5 c 2.3411,-7.71415 -1.9075,-15.8981 -9.6122,-18.36402 -1.4582,-0.46668 -2.9548,-0.68736 -4.4094,-0.6993 z"
         id="rect3820-8-8-4-0-4" />
    </g>
    <g
       id="text3952"
       style="font-size:145.83459473px;font-style:normal;font-weight:normal;line-height:125%;letter-spacing:0px;word-spacing:0px;fill:#000000;fill-opacity:1;stroke:none;font-family:Sans"
       transform="scale(0.89204347,1.1210216)">
      <path
         id="path3081"
         style="font-weight:bold;-inkscape-font-specification:Sans Bold"
         d="m 310.02688,417.56152 21.07766,0 0,56.53938 c -3e-5,8.97229 0.26107,14.78763 0.78329,17.44604 0.90194,4.27252 3.05006,7.70238 6.44435,10.2896 3.39422,2.58725 8.03463,3.88087 13.92123,3.88085 5.98143,2e-5 10.49129,-1.22239 13.52957,-3.66723 3.03815,-2.44479 4.86583,-5.44741 5.48304,-9.00785 0.61707,-3.56038 0.92564,-9.47066 0.92571,-17.73086 l 0,-57.74993 21.07766,0 0,54.83039 c -10e-5,12.53269 -0.56976,21.38625 -1.709,26.56069 -1.13943,5.17449 -3.24007,9.54193 -6.30194,13.10233 -3.06204,3.56042 -7.15651,6.39688 -12.28343,8.50939 -5.12707,2.11251 -11.82064,3.16877 -20.08074,3.16877 -9.9692,0 -17.52914,-1.1512 -22.67984,-3.4536 -5.15076,-2.3024 -9.2215,-5.29315 -12.21223,-8.97225 -2.99076,-3.67908 -4.96085,-7.53619 -5.91028,-11.57135 -1.37671,-5.98147 -2.06506,-14.81129 -2.06505,-26.48949 z" />
      <path
         id="path3083"
         style="font-weight:bold;-inkscape-font-specification:Sans Bold"
         d="m 414.91671,521.95288 0,-104.39136 21.07766,0 0,104.39136 z" />
      <path
         id="path3085"
         style="font-weight:bold;-inkscape-font-specification:Sans Bold"
         d="m 450.66327,487.98652 20.50799,-1.99383 c 1.23425,6.8835 3.73841,11.93928 7.51248,15.16737 3.774,3.22812 8.86539,4.84218 15.27418,4.84216 6.78847,2e-5 11.90359,-1.43601 15.34539,-4.3081 3.44166,-2.87204 5.16253,-6.2307 5.1626,-10.07597 -7e-5,-2.46853 -0.72402,-4.56917 -2.17185,-6.30194 -1.44797,-1.7327 -3.97586,-3.23994 -7.58369,-4.52173 -2.46861,-0.85445 -8.09406,-2.37356 -16.87636,-4.55733 -11.29842,-2.80081 -19.22627,-6.24254 -23.78358,-10.3252 -6.40876,-5.74407 -9.61313,-12.74622 -9.61312,-21.00645 -1e-5,-5.3168 1.50724,-10.28951 4.52173,-14.91814 3.01447,-4.62844 7.35817,-8.15325 13.03112,-10.57443 5.67289,-2.42098 12.52075,-3.63152 20.54359,-3.63162 13.10227,10e-5 22.96461,2.87217 29.58705,8.6162 6.62229,5.74423 10.09962,13.41098 10.43202,23.00028 l -21.07766,0.92571 c -0.90204,-5.36428 -2.83653,-9.22139 -5.80348,-11.57135 -2.96707,-2.34978 -7.41758,-3.52472 -13.35155,-3.52481 -6.12396,9e-5 -10.91864,1.2581 -14.38408,3.77404 -2.23122,1.61414 -3.34682,3.77412 -3.34679,6.47996 -3e-5,2.46863 1.04436,4.58114 3.13317,6.33753 2.65841,2.23127 9.11462,4.5574 19.36865,6.97842 10.25394,2.42114 17.83761,4.9253 22.75106,7.51247 4.91329,2.58729 8.75853,6.12397 11.53574,10.61004 2.77703,4.48617 4.1656,10.02854 4.16569,16.62714 -9e-5,5.98152 -1.66162,11.58323 -4.98459,16.80516 -3.32313,5.22195 -8.02287,9.10279 -14.09924,11.64255 -6.0765,2.53976 -13.64831,3.80964 -22.71545,3.80965 -13.1973,-10e-6 -23.33261,-3.05009 -30.40594,-9.15027 -7.07337,-6.10016 -11.29839,-14.98932 -12.67508,-26.66751 z" />
    </g>
  </g>
</svg>
